<svg xmlns="http://www.w3.org/2000/svg" viewBox="0 0 80 80" fill="none">
  <rect width="80" height="80" rx="16" fill="#10A37F"/>
  <path d="M40.5 18C32.3 18 25.8 23.8 24.5 31.3C20.2 32.2 17 36 17 40.5C17 44.4 19.3 47.8 22.7 49.4C22.5 50.3 22.4 51.2 22.4 52.1C22.4 58.6 27.5 63.9 33.8 63.9C35.6 63.9 37.3 63.5 38.8 62.7C40.8 66.3 44.7 68.7 49 68.7C55.3 68.7 60.4 63.4 60.4 56.9C60.4 56 60.3 55.1 60.1 54.2C63.5 52.6 65.8 49.2 65.8 45.3C65.8 40.8 62.6 37 58.3 36.1C57 28.6 50.5 22.8 42.3 22.8" stroke="white" stroke-width="3" stroke-linecap="round" stroke-linejoin="round"/>
  <path d="M40 28L40 52M40 28L32 36M40 28L48 36" stroke="white" stroke-width="2.5" stroke-linecap="round" stroke-linejoin="round" opacity="0"/>
  <circle cx="40" cy="40" r="10" stroke="white" stroke-width="2.5" fill="none"/>
  <path d="M35 40L38.5 43.5L45.5 36.5" stroke="white" stroke-width="2.5" stroke-linecap="round" stroke-linejoin="round"/>
</svg>
