<svg xmlns="http://www.w3.org/2000/svg" viewBox="0 0 80 80" fill="none">
  <rect width="80" height="80" rx="16" fill="#4285F4"/>
  <path d="M40 28C35.2 28 31 30.4 28.6 34L34.2 38.2C35.4 35.6 37.5 34 40 34C41.8 34 43.4 34.7 44.6 35.8L49.4 31C47 28.8 43.7 28 40 28Z" fill="#EA4335"/>
  <path d="M28.6 34C27.4 36.2 26.7 38.8 26.7 41.5C26.7 44.2 27.4 46.8 28.6 49L34.2 44.8C33.7 43.8 33.4 42.7 33.4 41.5C33.4 40.3 33.7 39.2 34.2 38.2L28.6 34Z" fill="#FBBC05"/>
  <path d="M40 55C43.7 55 47 53.8 49.4 51.5L44.2 47.2C43 48 41.5 48.5 40 48.5C37.2 48.5 34.8 46.6 33.8 44L28.2 48.2C30.6 52.2 35 55 40 55Z" fill="#34A853"/>
  <path d="M53.3 41.5C53.3 40.4 53.2 39.3 53 38.3H40V44.2H47.5C47.1 46.2 46 47.8 44.2 48.9L49.4 53.2C52 50.8 53.3 46.9 53.3 41.5Z" fill="white"/>
</svg>
